<?xml version="1.0" standalone="no"?>
<!DOCTYPE svg PUBLIC "-//W3C//DTD SVG 20010904//EN"
 "http://www.w3.org/TR/2001/REC-SVG-20010904/DTD/svg10.dtd">
<svg version="1.0" xmlns="http://www.w3.org/2000/svg"
 width="103.000000pt" height="20.000000pt" viewBox="0 0 103.000000 20.000000"
 preserveAspectRatio="xMidYMid meet">

<g transform="translate(0.000000,20.000000) scale(0.100000,-0.100000)"
fill="#000000" stroke="none">
<path d="M551 180 c14 -31 19 -36 19 -24 0 6 -7 19 -16 30 -14 18 -14 18 -3
-6z"/>
<path d="M632 180 c7 -11 17 -20 22 -20 5 0 1 9 -9 20 -10 11 -20 20 -22 20
-2 0 2 -9 9 -20z"/>
<path d="M170 180 c0 -5 5 -10 10 -10 6 0 10 5 10 10 0 6 -4 10 -10 10 -5 0
-10 -4 -10 -10z"/>
<path d="M387 150 c-3 -11 -1 -20 4 -20 5 0 9 9 9 20 0 11 -2 20 -4 20 -2 0
-6 -9 -9 -20z"/>
<path d="M1014 162 c4 -7 2 -19 -4 -27 -16 -20 -206 -22 -213 -2 -3 7 -6 5 -6
-6 -1 -14 -7 -16 -28 -12 -20 4 -22 3 -8 -2 11 -5 72 -7 135 -5 104 3 117 5
129 24 10 16 10 23 0 32 -9 8 -10 8 -5 -2z"/>
<path d="M239 151 c11 -7 10 -13 -8 -32 -11 -12 -21 -30 -21 -38 1 -12 3 -11
12 4 6 11 20 28 32 37 18 15 19 19 6 28 -8 5 -19 10 -25 10 -5 0 -4 -4 4 -9z"/>
<path d="M486 133 c4 -26 2 -33 -11 -33 -8 0 -18 7 -21 15 -6 14 -8 14 -18 1
-7 -10 -27 -14 -61 -13 -45 2 -50 4 -48 25 2 12 -2 22 -7 22 -6 0 -10 -9 -10
-20 0 -12 -9 -24 -22 -29 -15 -6 16 -9 88 -9 62 0 116 3 122 7 7 4 5 16 -4 36
l-14 30 6 -32z"/>
<path d="M710 119 c0 -5 5 -7 10 -4 6 3 10 8 10 11 0 2 -4 4 -10 4 -5 0 -10
-5 -10 -11z"/>
<path d="M591 54 c-9 -20 -17 -25 -36 -22 -13 3 -22 1 -19 -3 7 -12 54 -11 54
0 0 5 7 16 15 25 8 8 11 17 7 20 -5 3 -14 -6 -21 -20z"/>
<path d="M86 24 c-5 -12 -16 -15 -45 -12 -22 2 -37 0 -35 -4 9 -14 82 -9 87 6
3 8 18 16 34 19 28 4 28 4 -3 6 -21 0 -34 -5 -38 -15z"/>
<path d="M660 30 c-23 -7 -23 -8 -3 -9 12 -1 25 4 28 9 3 6 5 10 3 9 -2 -1
-14 -5 -28 -9z"/>
<path d="M230 21 c0 -6 -17 -12 -37 -14 l-38 -4 43 -1 c31 -2 42 2 42 13 0 8
-2 15 -5 15 -3 0 -5 -4 -5 -9z"/>
</g>
</svg>
